<svg width="20" height="20" viewBox="0 0 20 20" fill="none" xmlns="http://www.w3.org/2000/svg">
<path d="M6.48438 12.7189H17.0705C17.3326 12.7189 17.5626 12.5456 17.6335 12.2938L19.9774 4.09051C20.0278 3.91367 19.9933 3.72369 19.8824 3.57675C19.7713 3.43027 19.5985 3.34375 19.4142 3.34375H5.13168L4.71283 1.45898C4.65332 1.19058 4.41528 1 4.14062 1H0.585938C0.262146 1 0 1.26215 0 1.58594C0 1.90988 0.262146 2.17187 0.585938 2.17187H3.67035L5.78629 11.6934C5.16373 11.964 4.72656 12.5837 4.72656 13.3048C4.72656 14.2741 5.51514 15.0627 6.48438 15.0627H17.0705C17.3944 15.0627 17.6564 14.8007 17.6564 14.4767C17.6564 14.1529 17.3944 13.8908 17.0705 13.8908H6.48438C6.16165 13.8908 5.89844 13.6282 5.89844 13.3048C5.89844 12.9815 6.16165 12.7189 6.48438 12.7189Z" fill="white"/>
<path d="M5.89844 16.8204C5.89844 17.7898 6.68701 18.5782 7.6564 18.5782C8.62564 18.5782 9.41422 17.7898 9.41422 16.8204C9.41422 15.8512 8.62564 15.0626 7.6564 15.0626C6.68701 15.0626 5.89844 15.8512 5.89844 16.8204Z" fill="white"/>
<path d="M14.1406 16.8204C14.1406 17.7898 14.9292 18.5782 15.8984 18.5782C16.8678 18.5782 17.6562 17.7898 17.6562 16.8204C17.6562 15.8512 16.8678 15.0626 15.8984 15.0626C14.9292 15.0626 14.1406 15.8512 14.1406 16.8204Z" fill="white"/>
</svg>
