<svg width="108" height="122" viewBox="0 0 108 122" fill="none" xmlns="http://www.w3.org/2000/svg">
<path d="M21.21 91.42L48.77 118.68H81.72V46.1L39.68 4.5L21.21 91.42Z" fill="url(#paint0_linear)"/>
<path d="M21.73 81.38C21.73 83.88 22.05 85.9 22.7 87.45C23.35 89 24.27 90.22 25.47 91.12C26.67 92.02 28.14 92.62 29.89 92.92C31.64 93.22 33.61 93.37 35.81 93.37C38.01 93.37 40.18 93.19 42.33 92.85C42.35 92.85 42.37 92.84 42.39 92.84C45.16 92.39 47.2 89.99 47.2 87.18V16.63L21.72 25.33V81.38H21.73Z" fill="url(#paint1_linear)"/>
<path d="M43.46 3.75C40.97 1.25 37.57 0 33.27 0H27.72L10.94 5.7C3.65 8.09 0 12.29 0 18.28C0 21.48 0.75 23.98 2.25 25.77C2.26 25.79 2.28 25.81 2.29 25.82C4.52 28.49 8.15 29.53 11.47 28.5L21.73 25.32L47.21 16.62V13.93C47.21 9.64 45.96 6.24 43.46 3.75Z" fill="#EC407A"/>
<defs>
<linearGradient id="paint0_linear" x1="4.41376" y1="38.9524" x2="64.9625" y2="73.3896" gradientUnits="userSpaceOnUse">
<stop stop-color="#545454"/>
<stop offset="0.3387" stop-color="#9D9D9D"/>
<stop offset="1" stop-color="white" stop-opacity="0"/>
</linearGradient>
<linearGradient id="paint1_linear" x1="34.4718" y1="57.2327" x2="34.4718" y2="28.3117" gradientUnits="userSpaceOnUse">
<stop stop-color="#EC407A"/>
<stop offset="1" stop-color="#880E4F"/>
</linearGradient>
</defs>
</svg>
