<svg width="108" height="122" viewBox="0 0 108 122" fill="none" xmlns="http://www.w3.org/2000/svg">
<path d="M58.4098 8.88172C58.4098 8.88172 40.3586 39.9677 29.8424 52.4473C31.6619 52.3136 33.502 52.3856 35.2804 52.7351C37.0177 51.0287 39.7932 50.9567 42.0136 51.9538C48.7366 54.9555 54.9866 63.7447 51.1729 71.105C48.3973 76.4813 41.7875 77.4168 36.3906 77.8485C33.4403 78.085 30.4797 78.4242 27.5192 78.4756C23.8082 78.5373 19.7477 78.4036 16.2629 77.0261C14.8031 76.4505 13.4668 75.7206 12.3668 74.7132C8.24466 82.1352 5.22241 88.8787 5.22241 88.8787L38.3437 122H107.074V57.546L58.4098 8.88172Z" fill="url(#paint0_linear)"/>
<path d="M56.878 47.4205C55.7267 46.7934 54.5239 46.228 53.2698 45.7449C53.2698 45.7449 53.2595 45.7449 53.2595 45.7552C53.7016 45.9402 55.0379 46.557 56.878 47.4205Z" fill="#565656"/>
<path d="M54.709 44.8197C55.7164 44.2337 56.6724 43.5758 57.5873 42.8357C56.6313 43.5244 55.6753 44.1926 54.709 44.8197Z" fill="#565656"/>
<path d="M63.6729 53.1155C62.2851 51.3268 60.6917 49.8465 58.9133 48.6541C58.2554 48.212 57.577 47.8008 56.8779 47.4205C55.0276 46.557 53.6912 45.9505 53.2595 45.7449C40.235 53.8762 27.6526 56.5386 27.6526 56.5386H29.6058C34.3653 56.5386 37.7165 57.2788 39.6491 58.7693C41.5817 60.2599 42.548 62.4392 42.548 65.3175C42.548 68.1958 41.335 70.5293 38.8987 72.3077C38.1996 72.8217 37.3875 73.2535 36.4727 73.6235C34.2008 74.5282 31.2711 74.9907 27.6629 74.9907C22.3072 74.9907 17.9691 74.2198 14.6488 72.6881C12.4489 71.6704 10.5369 70.6835 8.92294 69.7275C7.38098 68.8126 5.40727 68.9977 4.10174 70.2312C3.29992 70.9919 2.57006 71.8554 1.92243 72.832C0.647746 74.7646 0.00012207 77.0673 0.00012207 79.74C0.00012207 84.2014 2.63174 87.8713 7.88469 90.7496C13.1376 93.6279 20.9297 95.0671 31.2403 95.0671C36.596 95.0671 41.5303 94.4503 46.0431 93.2065C50.5559 91.9626 54.4519 90.1534 57.7209 87.7788C60.9898 85.3939 63.5495 82.5258 65.3793 79.154C67.2091 75.7823 68.1343 71.9582 68.1343 67.7024C68.1343 64.526 67.7334 61.7504 66.9418 59.3758C66.1503 56.9806 65.0606 54.8939 63.6729 53.1155Z" fill="url(#paint1_linear)"/>
<path d="M53.2697 45.7346C53.7528 45.4365 54.2257 45.1281 54.7088 44.8197C54.1846 45.1281 53.6603 45.4056 53.1155 45.6729C53.1669 45.6935 53.2183 45.714 53.2697 45.7346Z" fill="#565656"/>
<path d="M53.2609 45.7454C53.2712 45.7454 53.2712 45.7351 53.2609 45.7454C53.2194 45.7144 53.1676 45.6936 53.1055 45.6729C53.1158 45.6729 53.1676 45.6936 53.2609 45.7454Z" fill="#565656"/>
<path d="M56.9805 7.0622C51.0285 2.35408 42.3524 1.52588e-05 30.9419 1.52588e-05C22.3172 1.52588e-05 15.4195 1.17191 10.2693 3.49513C5.1089 5.82863 2.52869 9.47794 2.52869 14.4328C2.52869 16.8177 3.07351 18.8736 4.16317 20.6109C4.64631 21.3819 5.19114 22.1015 5.79764 22.7696C7.03121 24.1266 9.03576 24.4452 10.66 23.6023C12.1814 22.8108 13.9392 22.1117 15.9129 21.5052C18.9866 20.5595 22.5536 20.0866 26.6244 20.0866C28.9168 20.0866 30.9213 20.2922 32.6381 20.6931C34.3342 21.094 35.7528 21.68 36.8939 22.4715C39.176 24.0546 40.317 26.1414 40.317 28.7216C40.317 34.1802 36.75 36.9043 29.6055 36.9043H18.0305C16.3652 36.9043 14.8541 37.922 14.2579 39.4742C14.0728 39.9471 13.9084 40.4611 13.7644 40.9956C13.3224 42.6301 13.0963 44.5935 13.0963 46.8756C13.0963 49.055 13.343 50.9464 13.8364 52.5295C13.9906 53.0229 14.1551 53.4855 14.3298 53.9378C14.9363 55.5106 16.4372 56.5489 18.1231 56.5489H27.6627C27.6627 56.5489 40.2451 53.8967 53.2695 45.7552C53.1667 45.714 53.1153 45.6832 53.1153 45.6832C53.6601 45.4159 54.1947 45.1281 54.7087 44.83C55.675 44.2029 56.631 43.5347 57.587 42.846C59.2318 41.5302 60.7429 39.9677 62.1101 38.1687C64.6389 34.8483 65.9033 30.8084 65.9033 26.0489C65.9033 18.1026 62.9325 11.7806 56.9805 7.0622Z" fill="#67AA27"/>
<defs>
<linearGradient id="paint0_linear" x1="0.938843" y1="18.0113" x2="65.7867" y2="82.865" gradientUnits="userSpaceOnUse">
<stop stop-color="#545454"/>
<stop offset="0.3387" stop-color="#9D9D9D"/>
<stop offset="1" stop-color="white" stop-opacity="0"/>
</linearGradient>
<linearGradient id="paint1_linear" x1="34.4676" y1="82.6785" x2="32.5225" y2="37.5526" gradientUnits="userSpaceOnUse">
<stop stop-color="#67AA27"/>
<stop offset="1" stop-color="#3F700F"/>
</linearGradient>
</defs>
</svg>
