<svg width="108" height="122" viewBox="0 0 108 122" fill="none" xmlns="http://www.w3.org/2000/svg">
<path d="M7.47998 89.51L39.7 121.73H106.56V59.03L59.22 11.68C59.22 11.68 35.69 52.21 27.23 58.27C18.77 64.33 7.47998 89.51 7.47998 89.51Z" fill="url(#paint0_linear)"/>
<path d="M62.09 16.35C60.55 13.07 58.28 10.22 55.29 7.81C52.29 5.4 48.68 3.5 44.43 2.1C40.18 0.7 35.31 0 29.81 0C21.8 0 15.43 1.23 10.71 3.69C5.98 6.15 3.62 9.89 3.62 14.91C3.62 17.23 4.15 19.25 5.21 20.99C5.22 21.01 5.23 21.02 5.24 21.04C6.85 23.66 10.23 24.57 12.98 23.21C14.16 22.62 15.46 22.05 16.86 21.5C18.73 20.76 20.75 20.25 22.92 19.96C22.92 19.96 65.09 9.74 64.08 31.05C64.29 29.69 64.4 28.31 64.4 26.93C64.4 23.16 63.63 19.64 62.09 16.35Z" fill="#29AEDF"/>
<path d="M64.62 75.11L64.6 75.06C63.83 72.67 61.6 71.06 59.09 71.06H28.22L47.18 55.86C57.09 47.95 62.72 39.67 64.08 31.04C65.1 9.73 22.92 19.95 22.92 19.95C24.29 19.77 25.72 19.68 27.21 19.68C30.68 19.68 33.6 20.45 35.97 22C38.33 23.54 39.52 25.67 39.52 28.37C39.52 29.43 39.3 30.54 38.87 31.7C38.44 32.86 37.71 34.11 36.7 35.46C35.69 36.81 34.36 38.33 32.72 40.02C31.08 41.71 29.01 43.62 26.5 45.74L6.51 62.81C4.87 64.16 3.37 65.97 2.02 68.24C0.67 70.51 0 73.28 0 76.56C0 79.65 0.6 82.33 1.81 84.59C1.82 84.61 1.83 84.64 1.85 84.66C3.69 88.08 7.3 90.16 11.19 90.16H57.03C59.54 90.16 61.56 89.41 63.11 87.92C64.65 86.43 65.43 83.94 65.43 80.47C65.42 78.54 65.15 76.75 64.62 75.11Z" fill="url(#paint1_linear)"/>
<defs>
<linearGradient id="paint0_linear" x1="3.31298" y1="20.5619" x2="66.4019" y2="83.6508" gradientUnits="userSpaceOnUse">
<stop stop-color="#545454"/>
<stop offset="0.3387" stop-color="#9D9D9D"/>
<stop offset="1" stop-color="white" stop-opacity="0"/>
</linearGradient>
<linearGradient id="paint1_linear" x1="43.7224" y1="52.912" x2="55.3281" y2="31.7188" gradientUnits="userSpaceOnUse">
<stop stop-color="#29AEDF"/>
<stop offset="1" stop-color="#0D7CA6"/>
</linearGradient>
</defs>
</svg>
