<?xml version="1.0" encoding="utf-8"?><svg xmlns="http://www.w3.org/2000/svg" xmlns:xlink="http://www.w3.org/1999/xlink"><symbol viewBox="0 0 447.243 447.243" id="arrow" xmlns="http://www.w3.org/2000/svg"><path d="M255.013 420.36c.297-1.83.434-3.681.41-5.534V99.305l3.2 6.88a63.998 63.998 0 0012.8 18.08l88.48 88.48c11.124 11.653 29.019 13.61 42.4 4.64 14.259-10.441 17.355-30.464 6.914-44.724a32.018 32.018 0 00-2.754-3.276l-160-160C233.973-3.12 213.712-3.13 201.208 9.36l-.025.025-160 160c-12.48 12.514-12.451 32.775.063 45.255a32.084 32.084 0 003.137 2.745c13.38 8.97 31.276 7.013 42.4-4.64l88.64-88.32a64.002 64.002 0 0011.68-16l4.32-9.6v314.24c-.607 16.347 10.812 30.689 26.88 33.76 17.445 2.829 33.88-9.02 36.71-26.464z" data-original="#000000" xmlns="http://www.w3.org/2000/svg"/></symbol><symbol viewBox="0 0 20 20" id="cart" xmlns="http://www.w3.org/2000/svg"><path d="M6.484 12.719H17.07a.584.584 0 00.564-.425l2.343-8.203a.585.585 0 00-.563-.747H5.132l-.42-1.885A.586.586 0 004.142 1H.586a.586.586 0 100 1.172H3.67l2.116 9.521a1.76 1.76 0 00-1.06 1.612c0 .97.79 1.758 1.758 1.758H17.07a.586.586 0 100-1.172H6.484a.587.587 0 010-1.172z"/><path d="M5.898 16.82c0 .97.789 1.758 1.758 1.758a1.76 1.76 0 001.758-1.758 1.76 1.76 0 00-1.758-1.757 1.76 1.76 0 00-1.758 1.757zm8.242 0c0 .97.79 1.758 1.758 1.758a1.76 1.76 0 001.758-1.758 1.76 1.76 0 00-1.758-1.757 1.76 1.76 0 00-1.757 1.757z"/></symbol><symbol viewBox="0 0 409.806 409.806" id="close" xmlns="http://www.w3.org/2000/svg"><path d="M228.929 205.01L404.596 29.343c6.78-6.548 6.968-17.352.42-24.132-6.548-6.78-17.352-6.968-24.132-.42-.142.137-.282.277-.42.42L204.796 180.878 29.129 5.21c-6.78-6.548-17.584-6.36-24.132.42-6.388 6.614-6.388 17.099 0 23.713L180.664 205.01 4.997 380.677c-6.663 6.664-6.663 17.468 0 24.132 6.664 6.662 17.468 6.662 24.132 0l175.667-175.667 175.667 175.667c6.78 6.548 17.584 6.36 24.132-.42 6.387-6.614 6.387-17.099 0-23.712L228.929 205.01z"/></symbol><symbol viewBox="0 0 96 96" id="download" xmlns="http://www.w3.org/2000/svg"><path d="M90 54a5.997 5.997 0 00-6 6v18H12V60a6 6 0 00-12 0v24a5.997 5.997 0 006 6h84a5.997 5.997 0 006-6V60a5.997 5.997 0 00-6-6z"/><path d="M43.758 64.242a5.998 5.998 0 008.484 0l18-18a6 6 0 00-8.484-8.484L54 45.516V12a6 6 0 00-12 0v33.516l-7.758-7.758a6 6 0 00-8.484 8.484z"/></symbol><symbol viewBox="0 0 20 20" id="gumburger" xmlns="http://www.w3.org/2000/svg"><path d="M19.219 9.219H.78a.781.781 0 100 1.562h18.44a.781.781 0 100-1.562zm0-6.25H.78a.781.781 0 100 1.562h18.44a.781.781 0 000-1.562zm0 12.5H.78a.781.781 0 100 1.562h18.44a.781.781 0 100-1.562z"/></symbol><symbol viewBox="0 0 330 330" id="search" xmlns="http://www.w3.org/2000/svg"><path d="M325.606 304.394L223.329 202.117c16.706-21.256 26.682-48.04 26.682-77.111C250.011 56.077 193.934 0 125.005 0 56.077 0 0 56.077 0 125.005S56.077 250.01 125.005 250.01c29.07 0 55.855-9.975 77.111-26.681l102.278 102.277A14.946 14.946 0 00315 330c3.839 0 7.678-1.464 10.606-4.394 5.858-5.857 5.858-15.355 0-21.212zM30 125.005C30 72.619 72.619 30 125.005 30c52.386 0 95.006 42.619 95.006 95.005 0 52.386-42.62 95.005-95.006 95.005S30 177.391 30 125.005z"/></symbol><symbol viewBox="0 0 20 20" id="user" xmlns="http://www.w3.org/2000/svg"><g clip-path="url(#gclip0)"><path d="M9.857 9.634c1.324 0 2.47-.475 3.406-1.411.937-.937 1.411-2.082 1.411-3.406 0-1.323-.474-2.47-1.41-3.406C12.325.475 11.18 0 9.856 0 8.533 0 7.386.475 6.45 1.411c-.936.937-1.411 2.082-1.411 3.406 0 1.324.475 2.47 1.411 3.406.937.936 2.083 1.411 3.406 1.411zm8.429 5.745c-.027-.39-.081-.815-.162-1.264a9.962 9.962 0 00-.31-1.27 6.278 6.278 0 00-.523-1.185 4.471 4.471 0 00-.788-1.027 3.473 3.473 0 00-1.131-.71 3.91 3.91 0 00-1.444-.262c-.205 0-.402.084-.783.332-.235.153-.51.33-.816.526-.262.167-.617.323-1.055.465a4.19 4.19 0 01-1.29.208c-.43 0-.864-.07-1.292-.208-.438-.142-.793-.298-1.054-.465-.304-.194-.578-.371-.817-.526-.38-.248-.578-.332-.782-.332-.52 0-1.006.088-1.444.261a3.47 3.47 0 00-1.132.711c-.297.285-.562.63-.787 1.027-.218.382-.393.78-.523 1.185-.125.39-.23.818-.31 1.27-.08.448-.135.874-.162 1.264-.027.383-.04.78-.04 1.182 0 1.044.331 1.889.986 2.512.646.615 1.502.927 2.542.927h9.63c1.04 0 1.895-.312 2.541-.927.655-.623.987-1.468.987-2.513 0-.403-.014-.8-.04-1.181z"/></g><defs><clipPath id="gclip0"><path d="M0 0h20v20H0z"/></clipPath></defs></symbol></svg>