<svg width="44" height="44" viewBox="0 0 44 44" fill="none" xmlns="http://www.w3.org/2000/svg">
<path d="M22 0C9.86967 0 0 9.86967 0 22C0 34.1303 9.86967 44 22 44C34.1303 44 44 34.1303 44 22C44 9.86967 34.1303 0 22 0ZM34.2957 16.2105L20.2356 30.1604C19.4085 30.9875 18.0852 31.0426 17.203 30.2155L9.7594 23.4336C8.87719 22.6065 8.82206 21.2281 9.59399 20.3459C10.4211 19.4637 11.7995 19.4085 12.6817 20.2356L18.5815 25.6391L31.1529 13.0677C32.0351 12.1855 33.4135 12.1855 34.2957 13.0677C35.1779 13.9499 35.1779 15.3283 34.2957 16.2105Z" fill="url(#paint0_linear)"/>
<defs>
<linearGradient id="paint0_linear" x1="22" y1="0" x2="22" y2="44" gradientUnits="userSpaceOnUse">
<stop stop-color="#2BB4E1"/>
<stop offset="1" stop-color="#209CD8"/>
</linearGradient>
</defs>
</svg>
