<svg width="175" height="35" viewBox="0 0 175 35" fill="none" xmlns="http://www.w3.org/2000/svg">
<path d="M17.5 0L22.1288 11.129L34.1435 12.0922L24.9896 19.9335L27.7862 31.6578L17.5 25.375L7.21376 31.6578L10.0104 19.9335L0.85651 12.0922L12.8712 11.129L17.5 0Z" fill="#9EC548"/>
<path d="M52.5 0L57.1288 11.129L69.1435 12.0922L59.9896 19.9335L62.7862 31.6578L52.5 25.375L42.2138 31.6578L45.0104 19.9335L35.8565 12.0922L47.8712 11.129L52.5 0Z" fill="#9EC548"/>
<path d="M87.5 0L92.1288 11.129L104.143 12.0922L94.9896 19.9335L97.7862 31.6578L87.5 25.375L77.2138 31.6578L80.0104 19.9335L70.8565 12.0922L82.8712 11.129L87.5 0Z" fill="#9EC548"/>
<path d="M122.5 0L127.129 11.129L139.143 12.0922L129.99 19.9335L132.786 31.6578L122.5 25.375L112.214 31.6578L115.01 19.9335L105.857 12.0922L117.871 11.129L122.5 0Z" fill="#9EC548"/>
<path d="M157.5 0L162.129 11.129L174.143 12.0922L164.99 19.9335L167.786 31.6578L157.5 25.375L147.214 31.6578L150.01 19.9335L140.857 12.0922L152.871 11.129L157.5 0Z" fill="#9EC548"/>
</svg>
